# xmcd
#
# Track frame offsets:
#	150
#	18963
#	35823
#	46042
#	55513
#	69762
#	82201
#	94520
#	109470
#	120753
#	132082
#	144226
#	158024
#	169638
#	183177
#	194514
#	206886
#	221242
#	238804
#	257128
#	277246
#	295373
#	309368
#
# Disc length: 4327 seconds
#
# Revision: 0
# Processed by: cddbd v1.5.2PL0 Copyright (c) Steve Scherf et al.
# Submitted via: audiograbber 1.83.01
#
DISCID=4d10e517
DTITLE=Various Artist - DJ LRM - In The Mix Vol. 2
DYEAR=2007
DGENRE=Hip-Hop
TTITLE0=Diddy, Lil Kim, Busta Rthymes and Keyshia Cole - Last Night (Remix)
TTITLE1=Beyonce and Young Buck - Go (Cashville Remix)
TTITLE2=Usher - Ooow Shawty
TTITLE3=Vic Damone - I'm Fly
TTITLE4=Jus Mula - Head Right
TTITLE5=Swiss Beatz - Money In the Bank
TTITLE6=Freeway and Jakk Frost - Hit Up the Club
TTITLE7=Joell Ortiz, Jadakiss and Saigon - Hip Hop (Remix)
TTITLE8=Chris Brown - Wall To Wall
TTITLE9=Fantasia and Gambino - When I See You (Black Label Remix)
TTITLE10=Lumidee and Snoop Dogg - I'm In It For The Money
TTITLE11=Kelly Rowland and Eve - Like This
TTITLE12=Remo Da Rapstar and Richie Sosa - I Bang
TTITLE13=Young Jeezy, Jadakiss, Bun B and R. Kelly - Go Getta (Remix)
TTITLE14=50 Cent - Amusement Park
TTITLE15=Rihanna and Lil Mama - Umbrella (Remix)
TTITLE16=Fabolous and Ne-Yo - Make Me Better
TTITLE17=David Banner, Lil Wayne, Akon and Snoop Dogg - Speaker
TTITLE18=Baby Huey, Bow Wow and T-Pain - Pop, Lock and Drop It (Remix)
TTITLE19=DJ UNK, T-Pain, Jim Jones and E-40 - 2 Step (Remix)
TTITLE20=R. Kelly and Usher - Same Girl
TTITLE21=Bobby Valentino and Ludacris - Rearview
TTITLE22=Mims, Tego Calderon and Calle 13 - This Is Why I'm Hot (Reggaeton Remix)
TTITLE22=(Bonus Track)
EXTD=
EXTT0=
EXTT1=
EXTT2=
EXTT3=
EXTT4=
EXTT5=
EXTT6=
EXTT7=
EXTT8=
EXTT9=
EXTT10=
EXTT11=
EXTT12=
EXTT13=
EXTT14=
EXTT15=
EXTT16=
EXTT17=
EXTT18=
EXTT19=
EXTT20=
EXTT21=
EXTT22=
PLAYORDER=
